<?xml version="1.0" encoding="UTF-8" standalone="no"?>
<!-- Created with Inkscape (http://www.inkscape.org/) -->

<svg
   width="600"
   height="200"
   viewBox="0 0 158.75 52.916667"
   version="1.1"
   id="svg5"
   inkscape:version="1.2.2 (732a01da63, 2022-12-09)"
   sodipodi:docname="logo.svg"
   xmlns:inkscape="http://www.inkscape.org/namespaces/inkscape"
   xmlns:sodipodi="http://sodipodi.sourceforge.net/DTD/sodipodi-0.dtd"
   xmlns="http://www.w3.org/2000/svg"
   xmlns:svg="http://www.w3.org/2000/svg">
  <sodipodi:namedview
     id="namedview7"
     pagecolor="#ffffff"
     bordercolor="#000000"
     borderopacity="0.25"
     inkscape:showpageshadow="2"
     inkscape:pageopacity="0.0"
     inkscape:pagecheckerboard="0"
     inkscape:deskcolor="#d1d1d1"
     inkscape:document-units="px"
     showgrid="false"
     inkscape:zoom="2.9666667"
     inkscape:cx="300"
     inkscape:cy="99.94382"
     inkscape:window-width="1920"
     inkscape:window-height="995"
     inkscape:window-x="-9"
     inkscape:window-y="-9"
     inkscape:window-maximized="1"
     inkscape:current-layer="text113" />
  <defs
     id="defs2" />
  <g
     inkscape:label="Layer 1"
     inkscape:groupmode="layer"
     id="layer1">
    <g
       aria-label="BaseUwU"
       id="text113"
       style="font-size:36.5895px;font-family:'Comic Sans MS';-inkscape-font-specification:'Comic Sans MS';stroke-width:0.686054;stroke-linecap:round;stroke-linejoin:round">
      <path
         d="m 10.340885,39.143169 v -3.394533 h 5.35979 q 2.358308,0 3.662523,-1.071958 1.304216,-1.089824 1.304216,-3.037215 0,-2.000988 -1.357814,-3.090812 -1.357813,-1.10769 -3.859049,-1.10769 H 10.412349 L 9.9835655,25.815158 H 16.34385 q 3.859049,0 5.967233,1.661535 2.108184,1.661535 2.108184,4.698749 0,3.32307 -2.000988,5.145399 -2.000989,1.822328 -5.681378,1.822328 z m -3.32307,0 V 13.773496 h 3.573193 V 39.143169 Z M 9.1259991,26.672724 V 24.92186 h 7.4322419 v 1.750864 z M 10.340885,25.67223 v -1.625803 h 4.287832 q 2.018854,0 3.126544,-0.893298 1.125556,-0.911164 1.125556,-2.590565 0,-1.643669 -1.179154,-2.519102 -1.161288,-0.875432 -3.32307,-0.875432 H 10.412349 L 9.9835655,13.773496 h 4.5736875 q 3.859049,0 5.967233,1.679401 2.108184,1.661535 2.108184,4.752347 0,2.626298 -2.000988,4.055575 -2.000988,1.411411 -5.681378,1.411411 z"
         style="font-family:'Cascadia Mono';-inkscape-font-specification:'Cascadia Mono';fill:#37c837"
         id="path893" />
      <path
         d="M 40.212783,39.321829 39.962659,33.711915 39.462412,32.13971 v -4.895275 q 0,-1.893792 -1.339948,-2.769225 -1.322081,-0.893298 -3.948378,-0.964762 l -4.537956,-0.125061 0.357319,-3.358802 3.823317,0.0536 q 4.69875,0.07146 6.967728,2.03672 2.286843,1.94739 2.286843,5.699243 v 7.896758 l 3.215874,0.393051 v 3.037214 z m -6.681872,0.17866 q -2.965751,0 -4.591554,-1.429278 -1.625803,-1.429277 -1.625803,-4.037708 0,-3.001483 2.233246,-4.60942 2.251112,-1.607937 6.342419,-1.607937 1.697266,0 3.019348,0.214392 1.339948,0.196526 2.376174,0.607443 l -0.786103,2.572699 q -1.19702,-0.267989 -2.340442,-0.303721 -1.143422,-0.0536 -2.340441,-0.0536 -4.931007,0 -4.931007,3.001482 0,1.250618 0.8397,1.929525 0.857567,0.678906 2.411906,0.678906 1.768731,0 2.947884,-0.607443 1.19702,-0.607442 1.786597,-1.554339 0.589577,-0.946896 0.589577,-1.94739 V 30.28165 l 1.10769,4.859543 h -1.500741 l 0.607443,-0.571711 q 0,1.643669 -0.768237,2.751359 -0.750371,1.089824 -2.12605,1.643669 -1.37568,0.535979 -3.251606,0.535979 z"
         style="font-family:'Cascadia Mono';-inkscape-font-specification:'Cascadia Mono';fill:#37c837"
         id="path895" />
      <path
         d="m 56.292154,39.500489 q -2.143916,0 -3.680389,-0.125062 -1.518608,-0.125062 -2.787091,-0.410917 l 0.428783,-3.430266 q 1.875926,0.285856 3.305204,0.428783 1.447143,0.142928 2.733493,0.142928 2.87642,0 4.16277,-0.553845 1.304216,-0.571711 1.304216,-1.804463 0,-0.857566 -0.464515,-1.268483 -0.44665,-0.428783 -1.393546,-0.661041 l -4.359296,-1.10769 q -2.804957,-0.714639 -4.127038,-1.768731 -1.304216,-1.054092 -1.304216,-3.198008 0,-3.108678 2.376174,-4.502224 2.394039,-1.393545 7.700232,-1.393545 1.375679,0 2.554833,0.08933 1.19702,0.07146 2.447637,0.267989 l -0.393051,3.287338 q -1.447143,-0.142927 -2.554833,-0.196525 -1.10769,-0.0536 -2.161782,-0.0536 -3.180142,0 -4.60942,0.553845 -1.429277,0.535979 -1.429277,1.76873 0,0.821835 0.589577,1.19702 0.589577,0.35732 1.804463,0.661041 l 3.501729,0.857566 q 2.983617,0.714639 4.359296,1.911659 1.393545,1.19702 1.393545,3.483863 0,3.055081 -2.233245,4.448626 -2.233246,1.37568 -7.164253,1.37568 z"
         style="font-family:'Cascadia Mono';-inkscape-font-specification:'Cascadia Mono';fill:#37c837"
         id="path897" />
      <path
         d="m 81.018651,39.500489 q -4.841677,0 -7.48584,-2.536968 -2.626297,-2.554833 -2.626297,-7.325046 0,-4.645151 2.233246,-7.217851 2.233246,-2.572699 6.306686,-2.572699 3.841183,0 5.931501,2.322576 2.108184,2.322575 2.108184,6.753335 0,1.304216 -0.107196,2.429772 H 74.086656 v -2.894287 h 9.969209 q 0,-2.554833 -1.214885,-3.912647 -1.214886,-1.375679 -3.358802,-1.375679 -2.411906,0 -3.751853,1.643669 -1.322082,1.643669 -1.322082,4.645151 0,3.287338 1.822329,5.002471 1.840195,1.715133 5.216862,1.715133 1.179154,0 2.322576,-0.125062 1.143422,-0.142928 2.322576,-0.375185 l 0.464515,3.32307 q -1.679401,0.321587 -3.072946,0.410917 -1.393546,0.08933 -2.465504,0.08933 z"
         style="font-family:'Cascadia Mono';-inkscape-font-specification:'Cascadia Mono';fill:#37c837"
         id="path899" />
      <path
         d="m 100.56402,36.259292 q -8.146879,0 -8.146879,-8.5042 V 10.5323 h 3.573193 v 17.222792 q 0,2.536967 1.10769,3.823317 1.125556,1.286349 3.537466,1.286349 4.64515,0 4.64515,-5.109666 V 10.5323 h 3.57319 v 17.222792 q 0,4.2521 -2.10818,6.37815 -2.10819,2.12605 -6.18163,2.12605 z"
         style="font-family:'Cascadia Mono';-inkscape-font-specification:'Cascadia Mono';fill:#37c837"
         id="path901" />
      <path
         d="m 124.21856,42.384366 -2.21537,-15.043144 h -0.28586 l -1.55434,-3.894781 h 3.466 l 2.23324,16.07937 h 0.32159 l 1.60794,-16.07937 h 3.75185 l -2.67989,18.937925 z m -9.46896,0 -2.14391,-18.937925 h 3.57319 l 1.42928,16.07937 h 0.32158 l 2.23325,-16.07937 h 3.466 l -1.59007,3.894781 h -0.25013 l -2.21538,15.043144 z"
         style="font-family:'Cascadia Mono';-inkscape-font-specification:'Cascadia Mono';fill:#37c837"
         id="path903" />
      <path
         d="m 143.44234,36.259292 q -8.14688,0 -8.14688,-8.5042 V 10.5323 h 3.57319 v 17.222792 q 0,2.536967 1.10769,3.823317 1.12556,1.286349 3.53746,1.286349 4.64516,0 4.64516,-5.109666 V 10.5323 h 3.57319 v 17.222792 q 0,4.2521 -2.10818,6.37815 -2.10819,2.12605 -6.18163,2.12605 z"
         style="font-family:'Cascadia Mono';-inkscape-font-specification:'Cascadia Mono';fill:#37c837"
         id="path905" />
    </g>
  </g>
</svg>
